<svg width="800px" height="800px" viewBox="0 0 16 16" xmlns="http://www.w3.org/2000/svg" class="bi bi-bootstrap-reboot">
  <defs>
    <linearGradient id="reboot-gradient">
      <stop offset="0" stop-color="#5277c3" stop-opacity="1"/>
      <stop offset=".7" stop-color="#7ebae4" stop-opacity="1"/>
    </linearGradient>
  </defs>
  <path fill="url(#reboot-gradient)" d="M1.161 8a6.84 6.84 0 1 0 6.842-6.84.58.58 0 1 1 0-1.16 8 8 0 1 1-6.556 3.412l-.663-.577a.58.58 0 0 1 .227-.997l2.52-.69a.58.58 0 0 1 .728.633l-.332 2.592a.58.58 0 0 1-.956.364l-.643-.56A6.812 6.812 0 0 0 1.16 8z"/>
</svg>
