<svg width="800px" height="800px"  xmlns="http://www.w3.org/2000/svg" viewBox="0 -10 455 530">
  <defs>
    <linearGradient id="gradient">
      <stop offset="0" stop-color="#2b4856" stop-opacity="1"/>
      <stop offset="0.8" stop-color="#183142" stop-opacity="1"/>
      <stop offset="1" stop-color="#183142" stop-opacity="1"/>
    </linearGradient>
  </defs>
  <path fill="url(#gradient)" 
        stroke="#a3b9b3"
        stroke-width="5"
        d="M144 144l0 48 160 0 0-48c0-44.2-35.8-80-80-80s-80 35.8-80 80zM80 192l0-48C80 64.5 144.5 0 224 0s144 64.5 144 144l0 48 16 0c35.3 0 64 28.7 64 64l0 192c0 35.3-28.7 64-64 64L64 512c-35.3 0-64-28.7-64-64L0 256c0-35.3 28.7-64 64-64l16 0z"/>
</svg>
