<svg xmlns="http://www.w3.org/2000/svg" viewBox="0 0 576 512">
  <defs>
    <linearGradient id="reboot-gradient">
      <stop offset="0" stop-color="#5277c3" stop-opacity="1"/>
      <stop offset="0.8" stop-color="#7eb1dd" stop-opacity="1"/>
      <stop offset="1" stop-color="#7ebae4" stop-opacity="1"/>
    </linearGradient>
  </defs>
  <path fill="url(#reboot-gradient)" d="M96 64c0-35.3 28.7-64 64-64L416 0c35.3 0 64 28.7 64 64l0 384 64 0c17.7 0 32 14.3 32 32s-14.3 32-32 32l-112 0-288 0L32 512c-17.7 0-32-14.3-32-32s14.3-32 32-32l64 0L96 64zM384 288a32 32 0 1 0 0-64 32 32 0 1 0 0 64z"/>
</svg>
