<svg xmlns="http://www.w3.org/2000/svg" viewBox="0 0 512 512">
  <defs>
    <linearGradient id="reboot-gradient">
      <stop offset="0" stop-color="#5277c3" stop-opacity="1"/>
      <stop offset="0.8" stop-color="#7eb1dd" stop-opacity="1"/>
      <stop offset="1" stop-color="#7ebae4" stop-opacity="1"/>
    </linearGradient>
  </defs>
  <path fill="url(#reboot-gradient)" d="M288 32c0-17.7-14.3-32-32-32s-32 14.3-32 32l0 224c0 17.7 14.3 32 32 32s32-14.3 32-32l0-224zM143.5 120.6c13.6-11.3 15.4-31.5 4.1-45.1s-31.5-15.4-45.1-4.1C49.7 115.4 16 181.8 16 256c0 132.5 107.5 240 240 240s240-107.5 240-240c0-74.2-33.8-140.6-86.6-184.6c-13.6-11.3-33.8-9.4-45.1 4.1s-9.4 33.8 4.1 45.1c38.9 32.3 63.5 81 63.5 135.4c0 97.2-78.8 176-176 176s-176-78.8-176-176c0-54.4 24.7-103.1 63.5-135.4z"/>
</svg>
